<svg xmlns:xlink="http://www.w3.org/1999/xlink" xmlns="http://www.w3.org/2000/svg" width="86.343" height="86.344" viewBox="0 0 86.343 86.344"><g id="Group_22333" data-name="Group 22333" transform="translate(1355.246 18070.246)"><path id="Path_44151" data-name="Path 44151" d="M11.629,0c6.423,0,11.629,5.967,11.629,13.327h0c0,7.36-7.44,33.3-11.629,33.19S0,20.687,0,13.327H0C0,5.967,5.207,0,11.629,0Z" transform="translate(-1285.35 -18070.246) rotate(45)" fill="#70AF69"></path><path id="Path_44153" data-name="Path 44153" d="M11.629,0c6.423,0,11.629,5.967,11.629,13.327h0c0,7.36-7.44,33.3-11.629,33.19S0,20.687,0,13.327H0C0,5.967,5.207,0,11.629,0Z" transform="translate(-1355.246 -18053.799) rotate(-45)" fill="#70AF69"></path><path id="Path_44152" data-name="Path 44152" d="M11.629,0c6.423,0,11.629,5.967,11.629,13.327h0c0,7.36-7.44,33.3-11.629,33.19S0,20.687,0,13.327H0C0,5.967,5.207,0,11.629,0Z" transform="translate(-1338.8 -17983.902) rotate(-135)" fill="#70AF69"></path><path id="Path_44154" data-name="Path 44154" d="M11.629,0c6.423,0,11.629,5.967,11.629,13.327h0c0,7.36-7.44,33.3-11.629,33.19S0,20.687,0,13.327H0C0,5.967,5.207,0,11.629,0Z" transform="translate(-1268.904 -18000.35) rotate(135)" fill="#70AF69"></path></g></svg>